<svg width="21" height="40" viewBox="0 0 21 40" fill="none" xmlns="http://www.w3.org/2000/svg">
<path d="M12.0131 1.42952C13.9191 -0.476508 17.0095 -0.476508 18.9155 1.42952C20.8215 3.33555 20.8215 6.42584 18.9155 8.33185L8.3319 18.9155C6.42582 20.8215 3.33555 20.8215 1.42952 18.9155C-0.476508 17.0095 -0.476508 13.9191 1.42952 12.0131L12.0131 1.42952Z" fill="#A192FF"/>
<path d="M12.0131 11.3232C13.9191 9.41721 17.0095 9.41721 18.9155 11.3232C20.8215 13.2292 20.8215 16.3196 18.9155 18.2256L8.3319 28.8092C6.42582 30.7152 3.33555 30.7152 1.42952 28.8092C-0.476508 26.9031 -0.476508 23.8129 1.42952 21.9069L12.0131 11.3232Z" fill="#A192FF"/>
<path fill-rule="evenodd" clip-rule="evenodd" d="M17.0801 10.1677L8.33195 18.9159C6.9617 20.2861 4.97942 20.6713 3.26508 20.0713L12.0132 11.3232C13.3835 9.95301 15.3657 9.56782 17.0801 10.1677Z" fill="#7654FF"/>
<path d="M12.0131 21.0847C13.9191 19.1787 17.0095 19.1787 18.9155 21.0847C20.8215 22.9907 20.8215 26.0811 18.9155 27.9871L8.3319 38.5707C6.42582 40.4767 3.33555 40.4767 1.42952 38.5707C-0.476508 36.6646 -0.476508 33.5744 1.42952 31.6684L12.0131 21.0847Z" fill="#A192FF"/>
<path fill-rule="evenodd" clip-rule="evenodd" d="M17.1767 19.9643L8.33175 28.8093C6.93561 30.2054 4.90407 30.579 3.16797 29.9298L12.013 21.0848C13.4091 19.6886 15.4407 19.3151 17.1767 19.9643Z" fill="#7654FF"/>
</svg>
